<?xml version="1.0" standalone="no"?>
<!DOCTYPE svg PUBLIC "-//W3C//DTD SVG 1.1//EN" "http://www.w3.org/Graphics/SVG/1.1/DTD/svg11.dtd" >
<svg xmlns="http://www.w3.org/2000/svg">
<metadata>
Created by FontForge 20120731 at Mon Dec 14 10:13:47 2015
 By Ads
</metadata>
<defs>
<font id="iconfont" horiz-adv-x="1024" >
  <font-face 
    font-family="iconfont"
    font-weight="500"
    font-stretch="normal"
    units-per-em="1024"
    panose-1="2 0 6 3 0 0 0 0 0 0"
    ascent="896"
    descent="-128"
    x-height="792"
    bbox="29 -69 997.25 842"
    underline-thickness="50"
    underline-position="-100"
    unicode-range="U+0078-E672"
  />
<missing-glyph horiz-adv-x="374" 
d="M34 0v682h272v-682h-272zM68 34h204v614h-204v-614z" />
    <glyph glyph-name=".notdef" horiz-adv-x="374" 
d="M34 0v682h272v-682h-272zM68 34h204v614h-204v-614z" />
    <glyph glyph-name=".null" horiz-adv-x="0" 
 />
    <glyph glyph-name="nonmarkingreturn" horiz-adv-x="341" 
 />
    <glyph glyph-name="x" unicode="x" horiz-adv-x="1001" 
d="M281 543q-27 -1 -53 -1h-83q-18 0 -36.5 -6t-32.5 -18.5t-23 -32t-9 -45.5v-76h912v41q0 16 -0.5 30t-0.5 18q0 13 -5 29t-17 29.5t-31.5 22.5t-49.5 9h-133v-97h-438v97zM955 310v-52q0 -23 0.5 -52t0.5 -58t-10.5 -47.5t-26 -30t-33 -16t-31.5 -4.5q-14 -1 -29.5 -0.5
t-29.5 0.5h-32l-45 128h-439l-44 -128h-29h-34q-20 0 -45 1q-25 0 -41 9.5t-25.5 23t-13.5 29.5t-4 30v167h911zM163 247q-12 0 -21 -8.5t-9 -21.5t9 -21.5t21 -8.5q13 0 22 8.5t9 21.5t-9 21.5t-22 8.5zM316 123q-8 -26 -14 -48q-5 -19 -10.5 -37t-7.5 -25t-3 -15t1 -14.5
t9.5 -10.5t21.5 -4h37h67h81h80h64h36q23 0 34 12t2 38q-5 13 -9.5 30.5t-9.5 34.5q-5 19 -11 39h-368zM336 498v228q0 11 2.5 23t10 21.5t20.5 15.5t34 6h188q31 0 51.5 -14.5t20.5 -52.5v-227h-327z" />
    <glyph glyph-name="uniE611" unicode="&#xe611;" 
d="M883 554l-34 34l-338 -338l-339 338l-34 -34l373 -372z" />
    <glyph glyph-name="uniE612" unicode="&#xe612;" 
d="M682 758l34 -34l-338 -339l338 -338l-34 -34l-372 372z" />
    <glyph glyph-name="uniE613" unicode="&#xe613;" 
d="M344 758l-34 -34l339 -339l-339 -338l34 -34l372 372z" />
    <glyph glyph-name="uniE614" unicode="&#xe614;" 
d="M141 216l34 -34l338 339l339 -339l34 34l-373 372z" />
    <glyph glyph-name="uniE615" unicode="&#xe615;" 
d="M513 816q-117 0 -216.5 -57.5t-157 -157t-57.5 -216.5q0 -70 22 -136t61.5 -119t92.5 -92.5t119 -61.5t136 -22q117 0 216.5 58t157 157t57.5 216q0 88 -34 167.5t-92 137.5t-137.5 92t-167.5 34zM513 2q-104 0 -192 51.5t-139.5 139.5t-51.5 192t51.5 192.5t139.5 139.5
t192 51q78 0 149 -30t122.5 -81.5t81.5 -122.5t30 -149q0 -151 -103 -261q-101 -109 -248 -121q-16 -1 -32 -1zM497 641h32v-511h-32v511zM258 401h511v-32h-511v32z" />
    <glyph glyph-name="uniE617" unicode="&#xe617;" 
d="M513 816q-117 0 -216.5 -57.5t-157 -157t-57.5 -216.5t57.5 -216t157 -157t216.5 -58q70 0 136 22t119 61.5t93 92.5t61.5 119t21.5 136q0 117 -57.5 216.5t-157 157t-216.5 57.5zM513 2q-104 0 -192 51.5t-139.5 139.5t-51.5 192t51.5 192.5t139.5 139.5t192 51
q78 0 149 -30t122.5 -81.5t81.5 -122.5t30 -149q0 -104 -51 -192t-139.5 -139.5t-192.5 -51.5zM705 600l23 -23l-407 -406l-22 22zM728 193l-23 -22l-406 406l22 23z" />
    <glyph glyph-name="uniE618" unicode="&#xe618;" 
d="M513 816q-117 0 -216.5 -57.5t-157 -157t-57.5 -216.5t57.5 -216t157 -157t216.5 -58t216.5 58t157 157t57.5 216q0 50 -11 98.5t-32.5 91t-51 80t-67 67t-80 51t-91 32.5t-98.5 11zM513 2q-104 0 -192 51.5t-139.5 139.5t-51.5 192t51.5 192.5t139.5 139.5t192 51
q52 0 102 -13.5t92 -38.5t77 -60t60 -77t38.5 -92t13.5 -102q0 -151 -103 -261q-101 -109 -248 -121q-16 -1 -32 -1zM529 187v451h-32v-451l-189 189l-23 -23l217 -216q11 -11 22 0l217 216l-23 23z" />
    <glyph glyph-name="uniE619" unicode="&#xe619;" 
d="M511 814q-117 0 -216.5 -58t-157 -157t-57.5 -216t57.5 -216.5t157 -157t216.5 -57.5t216.5 57.5t157 157t57.5 216.5t-57.5 216t-157 157t-216.5 58zM511 0q-78 0 -149 30t-122.5 81.5t-81.5 122.5t-30 149q0 104 51 192t139.5 139.5t192.5 51.5q52 0 101.5 -14
t91.5 -38.5t77.5 -60t60 -77.5t38.5 -91.5t14 -101.5q0 -104 -51.5 -192.5t-139.5 -139.5t-192 -51zM624 642l-249 -248q-11 -11 0 -22l249 -249l22 23l-237 237l237 237z" />
    <glyph glyph-name="uniE61A" unicode="&#xe61a;" 
d="M513 816q-117 0 -216.5 -57.5t-157 -157t-57.5 -216.5t57.5 -216t157 -157t216.5 -58t216.5 58t157 157t57.5 216q0 70 -21.5 136t-61.5 119t-93 93t-119 61.5t-136 21.5zM513 2q-52 0 -101.5 14t-91.5 38.5t-77.5 60t-60 77.5t-38.5 91.5t-14 101.5q0 104 51.5 192.5
t139.5 139.5t192 51q45 0 88 -10t80.5 -29t71 -45t59.5 -59.5t45 -71t29 -80.5t10 -88q0 -151 -103 -261q-101 -109 -248 -121q-16 -1 -32 -1zM481 613l-216 -217q-12 -11 0 -22l216 -217l23 23l-189 189h451v32h-451l189 189z" />
    <glyph glyph-name="uniE61B" unicode="&#xe61b;" 
d="M958 385zM64 385zM507 816q-117 0 -216.5 -57.5t-157 -157t-57.5 -216.5t57.5 -216t157 -157t216.5 -58t216.5 58t157 157t57.5 216q0 88 -34 167.5t-92 137.5t-137.5 92t-167.5 34zM507 2q-104 0 -192 51.5t-139.5 139.5t-51.5 192q0 78 30.5 149t81.5 122.5t122 81.5
t149 30q63 0 121.5 -19t105.5 -54.5t82.5 -82.5t54.5 -105.5t19 -121.5q0 -78 -30 -149t-81.5 -122t-122.5 -81.5t-149 -30.5zM252 401h511v-32h-511v32z" />
    <glyph glyph-name="uniE61C" unicode="&#xe61c;" 
d="M513 816q-117 0 -216.5 -57.5t-157 -157t-57.5 -216.5t57.5 -216t157 -157t216.5 -58t216.5 58t157 157t57.5 216q0 50 -11 98.5t-32.5 91t-51 80t-67 67t-80 51t-91 32.5t-98.5 11zM513 2q-78 0 -149 30.5t-122 81.5t-81.5 122t-30.5 149q0 104 51.5 192.5t139.5 139.5
t192 51q63 0 121.5 -19t105.5 -54.5t82.5 -82.5t54.5 -105.5t19 -121.5q0 -104 -51 -192t-139.5 -139.5t-192.5 -51.5zM400 645l-22 -23l237 -237l-237 -237l22 -22l249 248q11 11 0 22z" />
    <glyph glyph-name="uniE61D" unicode="&#xe61d;" 
d="M511 816q-117 0 -216.5 -57.5t-157 -157t-57.5 -216.5t57.5 -216t157 -157t216.5 -58t216.5 58t157 157t57.5 216q0 70 -22 136t-61.5 119t-92.5 93t-119 61.5t-136 21.5zM511 2q-52 0 -102 14t-92 38.5t-77 60t-60 77.5t-38.5 91.5t-13.5 101.5q0 104 51 192.5
t139.5 139.5t192.5 51q45 0 88 -10t80.5 -29t71 -45t59.5 -59.5t45 -71t29 -80.5t10 -88q0 -78 -30.5 -149t-81.5 -122t-122 -81.5t-149 -30.5zM543 157l216 217q12 11 0 22l-216 217l-23 -23l189 -189h-451v-32h451l-189 -189z" />
    <glyph glyph-name="uniE61E" unicode="&#xe61e;" 
d="M513 816q-117 0 -216.5 -57.5t-157 -157t-57.5 -216.5t57.5 -216t157 -157t216.5 -58t216.5 58t157 157t57.5 216t-57.5 216.5t-157 157t-216.5 57.5zM513 2q-78 0 -149 30.5t-122 81.5t-81.5 122t-30.5 149t30.5 149t81.5 122.5t122 81.5t149 30q63 0 121.5 -19
t105.5 -54.5t82.5 -82.5t54.5 -105.5t19 -121.5q0 -104 -51 -192t-139.5 -139.5t-192.5 -51.5zM502 634l-217 -217l23 -22l189 189v-452h32v452l189 -189l23 22l-217 217q-3 3 -7 4t-8 0t-7 -4z" />
    <glyph glyph-name="uniE61F" unicode="&#xe61f;" 
d="M437 252l-161 160l-25 -24l173 -173q5 -6 12.5 -6t12.5 6l322 321l-25 25zM511 816q-117 0 -216.5 -57.5t-157 -157t-57.5 -216.5t57.5 -216t157 -157t216.5 -58t216.5 58t157 157t57.5 216t-57.5 216.5t-157 157t-216.5 57.5zM511 2q-104 0 -192.5 51.5t-139.5 139.5
t-51 192t51 192.5t139.5 139.5t192.5 51q62 0 120.5 -19t105.5 -54.5t82.5 -82.5t55 -105.5t19.5 -121.5q0 -104 -51.5 -192t-139.5 -139.5t-192 -51.5z" />
    <glyph glyph-name="uniE620" unicode="&#xe620;" 
d="M265 399l-24 -24l173 -174q5 -5 12 -5t13 5l321 322l-25 25l-309 -309zM97 392q0 109 53.5 200.5t145 145t200.5 53.5q53 0 103.5 -13.5t93.5 -38t79.5 -60t62.5 -77.5t41.5 -91.5t18.5 -102.5h47q-4 118 -64.5 217t-161.5 156.5t-220 57.5q-91 0 -174 -35.5t-142.5 -95
t-95 -142.5t-35.5 -174q0 -73 22.5 -141t64 -123t96.5 -96.5t123 -64t141 -22.5v48q-156 0 -271 106q-112 103 -126 255q-2 19 -2 38zM781 314q-79 0 -135 -56t-56 -135.5t56 -135.5t135.5 -56t135.5 56t56 136q0 52 -25.5 96t-70 69.5t-96.5 25.5zM781 -39
q-67 0 -114.5 47.5t-47.5 114.5t47.5 114.5t114.5 47.5q44 0 81.5 -22t59 -59t21.5 -81q0 -67 -47.5 -114.5t-114.5 -47.5zM797 224h-32v-95v-6v-26h101v32h-69v95z" />
    <glyph glyph-name="uniE621" unicode="&#xe621;" 
d="M552 244v284h-48v-127h-110v-47h110v-110h48zM506 582h48v142h-48v-142zM505 12h48v143h-48v-143zM153 353h142v47h-142v-47zM763 402v-48h143v48h-143zM779 241v48h-159v-9v-39v-121h48v121h111zM190 460h225q16 0 28 11.5t12 28.5v208q0 7 -2 13t-6 11t-9 8.5t-11 5.5
t-12 2h-225q-6 0 -11 -1.5t-9.5 -4t-8 -6t-6 -8t-4 -9.5t-1.5 -11v-208q0 -17 11.5 -28.5t28.5 -11.5zM198 700h209v-192h-209v192zM872 748h-225q-10 0 -19.5 -5t-14.5 -14.5t-5 -20.5v-208q0 -17 11.5 -28.5t27.5 -11.5h225q8 0 15.5 3t13 8.5t8.5 12.5t3 16v208
q0 11 -5 20.5t-14.5 14.5t-20.5 5zM864 508h-209v192h209v-192zM415 301h-225q-11 0 -20 -5t-14.5 -14.5t-5.5 -20.5v-208q0 -17 11.5 -28.5t28.5 -11.5h225q16 0 28 11.5t12 28.5v208q0 17 -12 28.5t-28 11.5zM407 60h-209v193h209v-193zM858 59h-238v-48h246q16 0 28 12
t12 28v238h-48v-230z" />
    <glyph glyph-name="uniE623" unicode="&#xe623;" 
d="M814 762q-3 12 -12 18.5t-21 5.5l-298 -48l-320 -458q-15 -21 -11.5 -42t25.5 -36l288 -202q9 -6 18.5 -10t19.5 -5t19.5 0.5t18 6.5t14.5 14l321 457zM525 46q-4 -5 -9.5 -7t-12 -1t-12.5 4t-12 7l-261 183q-21 14 -7 34l302 432l259 35l55 -255zM693 629
q-10 7 -21.5 11t-23.5 4q-42 0 -66 -34q-9 -14 -12.5 -29t-0.5 -31q6 -33 33 -52q20 -14 45 -14q42 0 66 34q19 27 13 60q-3 15 -11.5 28.5t-21.5 22.5zM687 536q-7 -10 -19 -15.5t-25 -4.5t-23 9q-16 11 -19.5 30.5t7.5 35.5q15 21 40 21q7 0 14 -2.5t13 -6.5
q16 -11 19.5 -30.5t-7.5 -36.5z" />
    <glyph glyph-name="uniE624" unicode="&#xe624;" 
d="M544 11q-65 21 -116 52.5t-84.5 65.5t-57 82.5t-36 89t-19 101.5t-8 103t-1.5 108h1q89 0 169.5 30.5t151.5 90.5q141 -121 320 -121h1q0 -55 -1 -97.5t-5 -82.5q25 -10 46 -25q9 76 9 229v2q-1 10 -8 16.5t-18 6.5q-6 -1 -12 -1h-12q-171 0 -306 124q-6 5 -14 6v1v-1
l-1 1v-1q-8 0 -14 -6q-67 -62 -143.5 -93t-162.5 -31q-11 0 -24 1q-6 0 -12 -3t-9.5 -8.5t-3.5 -11.5v-2q0 -60 0.5 -91.5t3.5 -88.5t9.5 -90.5t18.5 -83.5t30 -82t45.5 -72.5t63 -67.5t84.5 -53.5t108 -45.5q3 -1 6 -1h1v0v0q2 0 3.5 0.5t3.5 0.5q60 19 111 46
q-12 7 -23 15t-22 17q-35 -17 -73 -29zM773 406q-80 0 -136 -56.5t-56 -135.5t56 -135.5t135.5 -56.5t135.5 56.5t56 135.5q0 89 -68 147q-54 44 -123 45zM773 52q-68 0 -115 47.5t-47 114.5t47 114.5t114.5 47.5t115 -47.5t47.5 -114.5q0 -79 -63 -128q-44 -34 -99 -34z
M789 221v110h-32v-142h133v32h-101z" />
    <glyph glyph-name="uniE625" unicode="&#xe625;" 
d="M866 750q-1 4 -3.5 6.5t-5 4t-6 2.5t-6.5 1h-664q-15 0 -21 -14q-2 -3 -2.5 -6t0 -6.5t2 -6.5t3.5 -6l235 -290v-312q1 -13 13 -19l186 -95q5 -3 11 -3q15 0 21 13q2 2 2.5 4.5t0.5 5.5v410l231 286q10 12 3 25zM584 430v-361l-138 71v290h138zM589 462h-152l-205 254
h563z" />
    <glyph glyph-name="uniE626" unicode="&#xe626;" 
d="M880 626h-577q-6 0 -10.5 -4.5t-4.5 -11.5v-32q0 -4 2 -8t5.5 -6t7.5 -2h577q6 0 10.5 4.5t4.5 11.5v32q0 3 -1 5l-2 4q-1 2 -3 3.5t-4 2.5t-5 1zM195 634h-48q-6 0 -11 -4.5t-5 -11.5v-48q0 -4 2.5 -8t6 -6t7.5 -2h48q5 0 8.5 2t5.5 6t2 8v48q0 7 -4.5 11.5t-11.5 4.5z
M880 417h-577q-6 0 -10.5 -4.5t-4.5 -11.5v-32q0 -4 2 -7.5t5.5 -6t7.5 -2.5h577q6 0 10.5 5t4.5 11v32q0 7 -4.5 11.5t-10.5 4.5zM195 425h-48q-6 0 -11 -4.5t-5 -11.5v-48q0 -4 2.5 -7.5t6 -6t7.5 -2.5h48q5 0 8.5 2.5t5.5 6t2 7.5v48q0 7 -4.5 11.5t-11.5 4.5zM880 208
h-577q-6 0 -10.5 -4.5t-4.5 -11.5v-32q0 -3 1.5 -6t3.5 -5t4.5 -3.5t5.5 -1.5h577q6 0 10.5 5t4.5 11v32q0 4 -1 6.5t-3 5t-5 3.5t-6 1zM195 216h-48q-6 0 -11 -4.5t-5 -11.5v-48q0 -6 5 -11t11 -5h48q7 0 11.5 5t4.5 11v48q0 7 -4.5 11.5t-11.5 4.5z" />
    <glyph glyph-name="uniE627" unicode="&#xe627;" 
d="M639 704h-64v-47h50q120 0 202.5 -76.5t82.5 -193.5v-4q0 -75 -36.5 -135.5t-98 -95t-136.5 -38.5v72l-128 -120h64h64q132 0 225.5 93.5t93.5 225.5q0 52 -16 101t-45.5 88t-69 68.5t-88 45.5t-100.5 16zM112 383v4q0 55 19.5 102.5t54 82t81.5 56.5t100 27v-78l144 127
h-64h-64h-16q-127 -7 -215 -99t-88 -220q0 -132 93.5 -225.5t225.5 -93.5h64v48h-50q-47 0 -90 12.5t-78.5 36.5t-61.5 57t-40.5 75t-14.5 88zM736 519q-5 5 -11.5 5t-11.5 -5l-237 -237l-137 137q-4 4 -10 3.5t-11 -5t-5.5 -10.5t3.5 -10l151 -151q9 -9 20 2l249 249
q11 11 0 22z" />
    <glyph glyph-name="uniE628" unicode="&#xe628;" 
d="M566 724h-110q-8 0 -14.5 -3t-12 -8t-8 -12t-2.5 -15v-109q0 -16 11 -27t26 -11h110q15 0 26 11t11 27v109q0 10 -5 19t-13.5 14t-18.5 5zM555 587h-89v89h89v-89zM566 478h-110q-15 0 -26 -11.5t-11 -26.5v-110q0 -15 11 -26t26 -11h110q15 0 26 11t11 26v110
q0 15 -11 26.5t-26 11.5zM555 341h-89v89h89v-89zM566 231h-110q-10 0 -18.5 -5t-13.5 -13.5t-5 -18.5v-110q0 -15 11 -26t26 -11h110q15 0 26 11t11 26v110q0 10 -5 18.5t-13.5 13.5t-18.5 5zM555 95h-89v88h89v-88z" />
    <glyph glyph-name="uniE629" unicode="&#xe629;" 
d="M313 160h208v-32h-208v32zM313 479h383v-32h-383v32zM313 623h383v-32h-383v32zM313 319h208v-32h-208v32zM186 40v654q0 11 5 20.5t14.5 14.5t19.5 5h591q17 0 28.5 -11.5t11.5 -28.5v-199h48v199q0 37 -26 62.5t-62 25.5h-591q-36 0 -61.5 -25.5t-25.5 -62.5v-654
q0 -36 25.5 -62t61.5 -26h200v48h-200q-16 0 -27.5 11.5t-11.5 28.5zM975 350l-40 40l-40 40q-6 6 -13.5 6t-13.5 -6l-330 -330q-3 -2 -4 -7l-37 -121q-2 -8 4 -14l1 -1l1 -1q6 -6 14 -3l121 36q4 1 7 5l330 330q5 5 5 13t-5 13zM626 15l-95 -28l29 95l255 255l66 -67z
M941 330l-46 -46l-67 66l47 47q6 6 13 0l27 -27l26 -26q7 -7 0 -14z" />
    <glyph glyph-name="uniE62A" unicode="&#xe62a;" 
d="M809 -20h-591q-23 0 -43.5 11.5t-32 32t-11.5 43.5v655q0 36 25.5 62t61.5 26h591q36 0 62 -26t26 -62v-655q0 -49 -43 -75q-21 -12 -45 -12zM218 762q-16 0 -28 -12t-12 -28v-655q0 -16 12 -27.5t28 -11.5h591q17 0 28.5 11.5t11.5 27.5v655q0 16 -11.5 28t-28.5 12
h-591zM322 187h383v-32h-383v32zM322 506h383v-31h-383v31zM322 650h383v-32h-383v32zM322 347h383v-32h-383v32z" />
    <glyph glyph-name="uniE62C" unicode="&#xe62c;" 
d="M830 743q-3 9 -8 16.5t-11.5 13t-15 8.5t-17.5 3h-526q-19 0 -35 -11.5t-21 -29.5l-92 -303v-3q0 -38 23 -67t61 -41v-279q0 -17 7.5 -32t20.5 -23.5t29 -8.5h524q24 0 40.5 18.5t16.5 45.5v281q43 7 67.5 35.5t24.5 70.5v3zM778 66q0 -13 -9 -22.5t-23 -9.5h-479
q-13 0 -22.5 9.5t-9.5 22.5v258q24 1 44 12q28 15 45 38q8 -10 18.5 -18.5t23 -15t26.5 -9.5t28 -3q59 0 95 48q36 -47 95 -47q29 0 54.5 13t42.5 35q17 -23 48 -39q6 -2 12 -3.5t11 -2.5v-266zM804 377q-27 -1 -46.5 21t-23.5 39q-3 12 -18 12h-19q-3 0 -5.5 -1t-4.5 -3
t-3.5 -4.5t-1.5 -5.5q-5 -28 -24 -43t-47 -15q-19 0 -33.5 6.5t-25 20t-12.5 31.5q-2 14 -16 14h-18q-6 0 -10.5 -4t-5.5 -10q-4 -28 -23.5 -42.5t-47.5 -14.5q-18 0 -33 6t-25 19t-13 32q-2 14 -16 14h-18q-11 -2 -14 -14q-2 -16 -15 -31t-28.5 -23t-26.5 -8
q-31 0 -51.5 17t-21.5 44l88 296q1 6 7 6h526q6 0 7 -6l89 -296q-1 -29 -21 -42t-49 -15z" />
    <glyph glyph-name="uniE62D" unicode="&#xe62d;" 
d="M175.5 684.5q28.5 29.5 70 30.5t70.5 -27l5 -5q20 13 43 23q-7 9 -14 16q-45 42 -106 41t-103 -45t-41 -105.5t45 -103.5q7 -7 17 -14q5 12 10 23t11 22q-4 3 -5 4q-29 28 -30 69.5t27.5 71zM885.5 718q-42.5 44 -103.5 45t-105 -41q-7 -7 -15 -16q23 -10 44 -23q3 4 4 5
q30 28 71 27t69.5 -30.5t28 -71t-30.5 -69.5q-1 -1 -5 -4q12 -22 21 -45q5 4 9 7t8 7q44 42 45.5 103.5t-41 105.5zM529 568h-32v-192v-2v-30h194v32h-162v192zM841 376q0 89 -44 164.5t-119.5 119.5t-164.5 44t-164.5 -44t-119.5 -119.5t-44 -164.5q0 -84 40.5 -156.5
t108.5 -117.5l-81 -77l33 -35l92 88q65 -30 135 -30t135 30l93 -88l33 35l-82 77q69 45 109 117.5t40 156.5zM513 96q-76 0 -140.5 37.5t-102 102t-37.5 140.5q0 116 82 198t198 82t198 -82t82 -198q0 -32 -7.5 -63.5t-21 -59t-33 -52t-43.5 -43.5t-51.5 -33t-59 -21.5
t-64.5 -7.5z" />
    <glyph glyph-name="uniE62E" unicode="&#xe62e;" 
d="M558 711q-63 79 -212 79q-17 0 -34 -1.5t-29 -2.5t-23 -3t-15.5 -2.5t-6.5 -1.5q-17 -4 -19 -22q0 -8 4.5 -14.5t11.5 -9.5q1 0 2 -1l5 -2l8 -4q4 -2 10 -6t11.5 -8.5t11.5 -10.5t11.5 -12.5t11 -15.5t10.5 -18q-45 -26 -81.5 -62t-62 -78t-39.5 -89.5t-14 -95.5
q0 -102 56.5 -189t154 -138t212 -51t211.5 51t154 138t57 189q0 76 -32 145.5t-86.5 120.5t-129.5 82t-158 33zM541 0q-76 0 -145 26.5t-119.5 70.5t-80 105t-29.5 128q0 89 51.5 168.5t137.5 123.5q6 3 10 10q6 9 2 20q-17 52 -57 88q17 2 35 2q134 0 180 -68q4 -6 12 -9
q4 -2 8 -2q100 0 185.5 -44.5t135 -121.5t49.5 -167q0 -130 -102 -226q-103 -97 -254 -103q-10 -1 -19 -1zM471 407q-10 0 -19 -4.5t-15.5 -13t-10.5 -20.5t-4 -25q0 -17 6.5 -31.5t17.5 -23t25 -8.5q20 0 34 18.5t14 45t-14 44.5t-34 18zM471 313q-3 0 -6 2.5t-5.5 6.5
t-4 10t-1.5 12q0 9 2.5 16t6.5 11t8 4t7.5 -4t6 -11t2.5 -15.5t-2.5 -16t-6 -11.5t-7.5 -4zM726.5 442q-20.5 0 -34.5 -18.5t-14 -45t14 -44.5t34 -18q14 0 25 8t17.5 22.5t6.5 32.5q0 26 -14 44.5t-34.5 18.5zM726 348q-2 0 -4.5 1.5t-4.5 4t-3.5 6.5t-2.5 9t-1 10
q0 12 5 21.5t11 9.5t11.5 -9.5t5.5 -22t-5.5 -21.5t-11.5 -9z" />
    <glyph glyph-name="uniE62F" unicode="&#xe62f;" 
d="M511 816q-117 0 -216.5 -57.5t-157 -157t-57.5 -216.5t57.5 -216t157 -157t216.5 -58t216.5 58t157 157t57.5 216q0 70 -22 136t-61.5 119t-92.5 93t-119 61.5t-136 21.5zM511 0q-35 0 -69 6.5t-65 18t-60 28t-54 38t-46.5 46.5t-38 54t-28.5 60t-18 65t-6 69
q0 105 51.5 193.5t140 140t193 51.5t193.5 -51.5t140.5 -140t51.5 -193t-51.5 -193.5t-140.5 -140.5t-193 -51.5zM590 385q34 20 53.5 54t19.5 74q0 41 -20 75.5t-54 54t-74.5 19.5t-75 -19.5t-54.5 -54t-20 -75t20 -74.5t53 -54q-44 -13 -80.5 -40t-62.5 -64.5t-38 -81.5
q-2 -8 3 -16q5 -5 17 -5h6h462h6q6 0 10 1t7 4q6 8 4 17q-18 67 -67 116t-115 69zM397 513q0 49 34.5 83t83 34t82.5 -34t34 -82.5t-34 -83t-83 -34.5q-61 0 -96 50q-21 31 -21 67zM730 212q-1 -2 -9 -2h-414l-2 -1q-5 0 -7 3q-2 4 -1 8q27 65 86 104.5t131 39.5
q36 0 70 -11t62 -30t50 -45.5t35 -58.5q1 -4 -1 -7z" />
    <glyph glyph-name="uniE630" unicode="&#xe630;" 
d="M917 303q-1 10 -9 16l-286 234v171q0 45 -31.5 76.5t-76.5 31.5v0q-45 0 -76.5 -31.5t-31.5 -76.5v-171l-286 -234q-8 -6 -9 -16l-9 -109q-1 -13 10 -21q3 -3 6.5 -4t7.5 -1t9 1l271 102v-130l-83 -70l32 -128l150 53q2 0 2.5 0.5t3 1t3.5 0.5q3 0 9 -2l149 -53l33 128
l-83 70v130l271 -102q4 -1 9 -1q4 0 7.5 1t6.5 4q11 8 10 21zM606 328q-10 4 -19 -0.5t-12 -13.5q-2 -4 -2 -8t1 -7v-167h1q-2 -12 8 -21l68 -58l-12 -47l-101 35q-4 1 -11.5 2.5t-14.5 1.5q-10 0 -23 -4l-100 -35l-12 47l68 58q10 9 8 21v167q2 3 2 7t-2 8q-3 9 -12 13.5
t-19 0.5l-269 -101l5 62l286 234q8 7 9 17v184q0 25 17.5 42.5t42.5 17.5h1h1q25 0 42 -17.5t17 -42.5v-184h1q0 -5 2.5 -9.5t6.5 -7.5l286 -234l5 -62z" />
    <glyph glyph-name="uniE631" unicode="&#xe631;" 
d="M514 837q-91 0 -174.5 -36t-143.5 -97t-96 -144.5t-36 -174.5q0 -61 16 -119t45 -107t70 -90t90 -70t107 -45t119 -16t119 16.5t107.5 46t91 71.5t70.5 91.5t45.5 107.5t16.5 119q0 91 -35.5 174t-95.5 142.5t-142.5 95t-173.5 35.5zM512 -16q-109 0 -201 53.5
t-145.5 146t-53.5 201t53.5 201t145.5 146t201 53.5q82 0 156 -32t127.5 -85.5t85 -127.5t31.5 -156q0 -156 -105 -271q-104 -112 -255 -127q-20 -2 -40 -2zM638 354q-9 12 -22 21q-4 3 -8.5 5.5t-9.5 5t-10 4.5q-15 7 -31 13q-10 3 -26 8v147q9 -1 13 -3q16 -5 29 -15l4 -4
q2 -2 3.5 -4t3.5 -4t3.5 -4t3 -4.5t2.5 -5.5q8 -15 10 -35h44q-1 20 -8 41t-23 38.5t-42 29.5q-5 2 -9.5 3.5t-10 2.5t-11.5 2l-12 2v27h-31v-27q-26 0 -46 -6q-24 -6 -42 -19t-27.5 -32.5t-9.5 -44.5q0 -20 5.5 -35.5t15 -27.5t23 -21t28.5 -16q7 -4 15 -7l16 -6
q5 -1 22 -6v-164q-8 1 -14.5 2.5t-13.5 3.5q-19 8 -33 21q-2 3 -4.5 5.5t-5 5.5t-4.5 7l-4 6q-2 4 -4 7q-8 18 -10 40h-44q1 -32 14 -57.5t34 -42.5q7 -6 14.5 -11t16 -9.5t16.5 -7.5q21 -7 42 -9v-29h31v29q22 2 41 7q5 2 10 3.5t10 3.5t9 4.5t8.5 5.5t8.5 6q19 15 30 37
t11 52q0 19 -6 34q-1 3 -1.5 5t-1.5 4l-2 4l-2 4q-1 2 -2.5 3.5t-2.5 3.5t-3 3zM500 421q-2 1 -7 2.5t-8 2.5q-20 7 -34 16q-8 5 -14 10.5t-10 11.5q-9 13 -9 32q0 9 2 16.5t6 13.5t9 11t11 9q5 3 9.5 5t9.5 3.5t11 2.5q3 1 7.5 1.5t8.5 1t8 0.5v-139zM607 255
q-1 -3 -3 -5.5t-4 -5.5t-4.5 -5t-5 -4.5t-5.5 -4.5q-5 -3 -10 -5.5t-11 -4.5l-12 -4q-9 -2 -21 -3v154q2 -1 4 -1.5t3.5 -1t3.5 -1.5t3.5 -1.5t3.5 -0.5q19 -7 33.5 -16t23.5 -22q5 -6 7.5 -13.5t2.5 -16.5q0 -22 -9 -38z" />
    <glyph glyph-name="uniE632" unicode="&#xe632;" 
d="M802 440l-267 -317q-51 -61 -130 -68t-139.5 44t-67.5 130t44 140l287 342q4 5 5 6q32 38 81.5 42.5t87.5 -27.5q25 -21 35.5 -51t5 -61.5t-25.5 -56.5q-2 -1 -5 -4l-1 -1v-1l10 -7l-10 7l-287 -342q-13 -15 -32.5 -17t-34.5 11q-10 8 -14.5 20t-2.5 24.5t11 22.5
l236 282l-37 30l-236 -281q-25 -30 -22 -69.5t33.5 -65t70 -22t65.5 33.5l287 342v1l2 2q2 2 3 4q45 53 39 122t-59.5 113.5t-122.5 38.5t-114 -59q-1 -1 -3 -4l-1 -2l18 -15l-19 15l-287 -342q-13 -15 -22.5 -32t-16.5 -34.5t-11 -35.5t-5.5 -36.5t0.5 -37t6 -36t11.5 -35
t17 -33.5t22 -30.5t28.5 -27.5q70 -58 159.5 -55.5t155.5 62.5l1 -2l21 25l267 318z" />
    <glyph glyph-name="uniE633" unicode="&#xe633;" 
d="M855 670h-12h-12q-85 0 -162 31t-143 93q-6 5 -15 6v0h-1q-2 0 -4.5 -0.5t-5 -2t-4.5 -3.5q-134 -124 -306 -124h-24q-5 1 -9.5 -1t-8 -5t-5.5 -7.5t-2 -8.5v-2q0 -60 0.5 -91.5t3.5 -88.5t9.5 -90.5t19 -84t30 -82.5t45 -72t63 -67.5t84.5 -54t108 -44.5q3 -1 6 -1h1v0
v0q2 0 3.5 0.5t3.5 0.5q59 18 107.5 44.5t84 54t63.5 67.5t45.5 72t30 82.5t18.5 84t9.5 90.5t4 88.5t0.5 91.5v2q-1 10 -8 16.5t-18 5.5zM511 20q-57 18 -103 43t-78.5 58t-57 66t-39.5 78t-24 81.5t-13 90t-5.5 90.5t-1.5 95h1q179 0 321 121q70 -61 150.5 -91t169.5 -30
h1q0 -204 -26 -305q-51 -191 -231 -273q-31 -14 -64 -24zM487 389q5 3 10 9q7 7 11 18q2 6 3 12.5t1 13.5q0 16 -6 29q-5 14 -16 23q-12 10 -29 15t-40 5h-100v-269h112q9 0 18 1t17 3q17 4 29 13q12 10 19 26q7 15 7 36q0 28 -14 47q-5 6 -10.5 10t-11.5 8zM361 477h47
q19 0 32 -2q6 -1 11 -2.5t8 -3.5q7 -5 10 -10q1 -2 1.5 -4.5t1 -5.5t0.5 -7q0 -5 -1 -9.5t-2 -8.5q-3 -6 -9 -11q-2 -2 -4.5 -3.5t-5.5 -2.5t-7 -2q-6 -2 -13.5 -2.5t-15.5 -0.5h-53v75zM479 301q-3 -8 -11 -12q-8 -5 -21 -6q-14 -2 -33 -2h-53v85h56q16 0 29 -2t21 -6
q2 -2 4 -3t3.5 -2.5t2.5 -3t2 -3.5q4 -8 4 -22v-7q0 -3 -0.5 -6t-1.5 -5.5t-2 -4.5zM727 490q-11 11 -29 18q-17 6 -43 6h-100v-269h39v112h47q18 0 36 3q9 2 17.5 5t16.5 7q15 9 25 24q2 3 3.5 6.5t2.5 7.5l2 8q1 4 1 8v9q0 15 -4 29q-2 8 -5.5 14.5t-8.5 11.5zM701 414
q-4 -8 -11 -12q-2 -2 -4.5 -3t-4.5 -1.5t-5 -1.5t-6 -1q-13 -2 -29 -2h-47v84h54q16 0 27 -2.5t18 -7.5q3 -3 5.5 -6t4 -6.5t2.5 -8t1 -9.5q0 -14 -5 -23z" />
    <glyph glyph-name="uniE637" unicode="&#xe637;" 
d="M496 746h-24q-78 0 -150 -31t-123.5 -82.5t-82.5 -123.5t-31 -150q0 -105 52 -194t141 -141t194 -52q79 0 150.5 31t123 82.5t82.5 123t31 150.5v24h-363v363zM810 335q-9 -134 -109 -225q-98 -89 -229 -90q-92 0 -170 45.5t-123.5 123.5t-45.5 170q0 44 11.5 86t31.5 78
t49 67t63.5 53.5t75.5 36.5t84 17v-362h362zM571 803h-24v-369h369v24q0 47 -12.5 91.5t-34.5 82.5t-54 70t-70 54t-82.5 34.5t-91.5 12.5zM595 482v272q109 -9 186.5 -86.5t85.5 -185.5h-272z" />
    <glyph glyph-name="uniE638" unicode="&#xe638;" 
d="M837 661h-239q-35 0 -60 -23.5t-27 -57.5l-1 -8q0 -9 -4.5 -18t-12.5 -14t-18 -7h-196q-24 0 -44.5 -11.5t-32 -32t-11.5 -43.5v-352q0 -36 25.5 -61.5t62.5 -25.5h558q37 0 62.5 25.5t25.5 61.5v64v248v167q0 12 -3 23.5t-8.5 21t-14 17.5t-18 14t-21 9t-23.5 3zM877 94
q0 -6 -2 -12t-5.5 -11t-8.5 -8.5t-11 -5.5t-13 -2h-558q-17 0 -28.5 11.5t-11.5 27.5v352q0 10 5 19.5t14.5 15t20.5 5.5h199q13 1 24.5 5.5t21 12t17 17t12 21t5.5 23.5v8q0 17 11.5 28.5t28.5 11.5h239q17 0 28.5 -11.5t11.5 -28.5v-479zM382 582q32 3 54.5 25.5
t25.5 53.5v7v1q0 17 12 28.5t28 11.5h295v48h-295q-11 0 -22 -3t-20.5 -8t-17.5 -12.5t-13.5 -16.5t-9 -19.5t-4.5 -21.5h-1v-8q0 -15 -10 -26t-25 -13h-196q-14 0 -27.5 -4.5t-24.5 -12.5t-19 -19t-12.5 -24t-4.5 -28v-413h48v413q0 9 3 16t8.5 12.5t13 8.5t15.5 3h199v1z
" />
    <glyph glyph-name="uniE639" unicode="&#xe639;" 
d="M143 65q-16 0 -27 12t-11 28v454h710v-68h48v116q0 7 -3 13l-118 149q-2 4 -5 6.5t-7 4t-8 1.5h-118h-160h-245q-14 0 -21 -12l-118 -149q-3 -6 -3 -13v-502q0 -37 25 -62t61 -25h301h64v47h-64h-301zM476 733h128h104l102 -126h-334v126zM212 733h232v-126h-334z
M739 440q-93 0 -159 -66t-66 -159t66 -159.5t159 -66.5t159.5 66.5t66.5 159.5t-66.5 159t-159.5 66zM739 21q-39 0 -75 15.5t-62 41.5t-41 62t-15 75q0 80 56.5 136.5t136.5 56.5t137 -56.5t57 -136.5t-57 -137t-137 -57zM752 362h-32v-141v-32h32h109v32h-109v141z" />
    <glyph glyph-name="uniE63B" unicode="&#xe63b;" 
d="M936 676l-12 10q-22 18 -54 18h-718q-31 0 -53 -16l-10 -8q-8 -8 -13.5 -17.5t-8.5 -21t-3 -22.5v-463q0 -37 26 -63.5t62 -26.5h423v48h-421l256 264l69 -63q14 -13 32 -13t32 12l68 60l23 24l267 246q4 -5 6.5 -11.5t2.5 -13.5v-170h48v170q0 33 -22 57zM122 129
q-10 12 -10 27v463q0 5 1.5 10.5t4 10t6.5 7.5l262 -246zM522 338q-3 -2 -5.5 -3t-5.5 -1t-5.5 1t-4.5 3l-340 318h705zM942 305h-32v19q0 38 -27.5 65.5t-65.5 27.5h-5q-26 0 -47.5 -12.5t-34 -34t-12.5 -46.5v-19h-32q-3 0 -6 -1t-5 -3t-3.5 -5t-1.5 -7v-207q0 -7 5 -11.5
t11 -4.5h256q4 0 8 2t6 6t2 8v207q0 7 -5 11.5t-11 4.5zM750 324q0 12 5 23.5t13.5 19.5t19.5 13t24 5h5q12 0 23.5 -5t19.5 -13t13 -19.5t5 -23.5v-19h-128v19zM926 98h-224v175h48h128h16h32v-175z" />
    <glyph glyph-name="uniE63C" unicode="&#xe63c;" 
d="M951 424q-3 7 -8.5 10.5t-12.5 3.5h-125q-13 88 -64 160t-130 113.5t-170 41.5q-38 0 -74.5 -7.5t-69 -21t-62.5 -34t-54.5 -45t-44.5 -54.5t-34 -62.5t-21.5 -69t-7.5 -74.5q0 -100 49 -184.5t134 -134t185 -49.5q103 0 191 54l-35 35q-72 -41 -156 -41q-87 0 -161 43
t-116.5 116.5t-42.5 160.5t42.5 161t116.5 117t161 43q118 0 207 -76.5t108 -191.5h-110q-5 0 -9 -1.5t-7.5 -4.5t-5.5 -8q-6 -14 4 -25l142 -166q7 -8 18 -8t18 8l142 166q10 11 3 25zM788 285l-90 105h180z" />
    <glyph glyph-name="uniE63E" unicode="&#xe63e;" 
d="M836 787h-654q-36 0 -61 -25.5t-25 -62.5v-351q0 -25 11.5 -45t31 -31.5t43.5 -11.5h654q25 0 45.5 11.5t32.5 32t12 44.5v351q0 24 -12 44t-32.5 32t-45.5 12zM878 348q0 -11 -5.5 -20t-15 -14.5t-21.5 -5.5h-654q-16 0 -27 11.5t-11 28.5v351q0 11 5 20t13.5 14.5
t19.5 5.5h654q12 0 21.5 -5.5t15 -15t5.5 -19.5v-351zM836 191h-654q-18 0 -34 -6.5t-27.5 -18.5t-18 -28t-6.5 -35v-31q0 -37 25 -62.5t61 -25.5h654q37 0 63.5 25.5t26.5 62.5v31q0 15 -4.5 28.5t-13 24t-19.5 18.5t-24.5 12.5t-28.5 4.5zM878 72q0 -5 -1 -9.5t-3 -8.5
t-5 -7.5t-6.5 -6t-8 -4.5t-9 -3t-9.5 -1h-654q-16 0 -27 11.5t-11 28.5v31q0 17 11 28.5t27 11.5h654q17 0 29.5 -11.5t12.5 -28.5v-31z" />
    <glyph glyph-name="uniE63F" unicode="&#xe63f;" 
d="M508 652q-67 0 -113.5 -47t-46.5 -113t46.5 -113t113 -47t113 47t46.5 113q0 33 -12.5 62.5t-34 50.5t-51 34t-61.5 13zM507.5 372q-49.5 0 -84.5 35.5t-35 84.5q0 24 9.5 46.5t25.5 38.5t38 25.5t47 9.5q32 0 59.5 -16t43.5 -43.5t16 -60.5q0 -49 -35 -84.5t-84.5 -35.5
zM511 825q-68 0 -130 -26.5t-107 -71.5t-71.5 -107t-26.5 -131q0 -25 8.5 -57t23 -64t34.5 -67.5t41.5 -67.5t46 -66t46 -61t43 -53t36 -42.5t26 -30t12.5 -13.5l18 -21l18 21l12 13q12 14 26 30.5t36 42.5t43.5 53t46 61t46 66t41.5 67.5t34.5 67.5t23 64t8.5 57
q0 69 -26.5 131t-71.5 107t-107 71.5t-130 26.5zM511 20q-4 5 -13 15q-35 43 -55.5 68.5t-58 74.5t-61.5 85.5t-49 80t-37.5 80.5t-12.5 65q0 78 38.5 144.5t104.5 105t144 38.5q119 0 203 -84.5t84 -203.5q0 -28 -11.5 -63.5t-34.5 -76.5t-45 -75.5t-56.5 -79t-53.5 -68.5
t-50.5 -62.5t-35.5 -43.5z" />
    <glyph glyph-name="uniE640" unicode="&#xe640;" 
d="M876 578h-229v58v12q0 24 -12 44t-33 32t-45 12h-431q-36 0 -61 -25.5t-25 -62.5l2 -414q0 -36 25 -61.5t61 -25.5h40h32q0 -47 32.5 -79.5t79 -32.5t79 32.5t32.5 79.5h287q0 -47 33 -79.5t79 -32.5t79 32.5t33 79.5h48v315zM850 530l84 -82v-158h-303v240h219zM375 194
v-47q0 -27 -18.5 -45.5t-45 -18.5t-45.5 18.5t-19 45.5v47h-30v1h-89q-16 0 -27 11.5t-11 27.5l-2 414q0 11 5 20t14 14.5t19 5.5h431q7 0 13 -2t11.5 -6t9 -9t6 -11t2.5 -12v-12v-60v-46v-336h-176h-48zM886 194v-47q0 -27 -18.5 -45.5t-45 -18.5t-45.5 18.5t-19 45.5v47
h-48h-79v64h303v-64h-48z" />
    <glyph glyph-name="uniE641" unicode="&#xe641;" 
d="M511 832q-91 0 -174 -35.5t-142.5 -95t-95 -142.5t-35.5 -174t35.5 -173.5t95 -142.5t142.5 -95.5t174 -35.5q73 0 141 22.5t123 64t96.5 96.5t64 123t22.5 141q0 91 -35.5 174t-95.5 142.5t-142.5 95t-173.5 35.5zM512 -16q-109 0 -201 53.5t-145.5 146t-53.5 201
t53.5 201t145.5 146t201 53.5t201 -53.5t145.5 -146t53.5 -201.5q0 -156 -105 -271q-104 -112 -255 -127q-20 -2 -40 -2zM749 610q0 2 -1 4l-1 2v1l-2 1q-3 4 -8.5 5.5t-10.5 -1.5l-289 -162l-163 -289q-2 -5 -2 -10q1 -2 1 -3t1 -2v-2h1l1 -2q9 -10 20 -4l289 162l163 290
q2 4 1 10v0zM329 204l123 218l95 -96zM570 349l-95 95l218 123z" />
    <glyph glyph-name="uniE642" unicode="&#xe642;" 
d="M64 385zM887 122l-73 85v272q0 116 -78 202.5t-193 98.5v12q0 13 -9.5 22t-22.5 9q-9 0 -16.5 -4t-11.5 -11.5t-4 -15.5v-12q-75 -8 -137.5 -49.5t-98 -108t-35.5 -143.5v-272l-74 -85q-3 -4 -3.5 -8.5t1.5 -8.5q4 -9 14 -9h729q10 0 14.5 9t-2.5 17zM208 143l47 64v272
q0 105 75 180t181 75q52 0 99 -20t81.5 -54.5t54.5 -81.5t20 -99v-272l48 -64h-606zM624 59q0 -17 -15.5 -32t-42 -23.5t-56 -8.5t-55.5 8.5t-41.5 23.5t-15.5 32h-48q0 -47 46.5 -79.5t114 -32.5t114 32.5t46.5 79.5h-47z" />
    <glyph glyph-name="uniE643" unicode="&#xe643;" 
d="M974 405q-2 4 -5 6.5t-7 3.5t-8 1l-140 -1l-1 130q0 4 -1 7t-2.5 5.5t-3.5 4.5q-7 7 -17 7h-92v116q0 7 -3.5 12.5t-9 8.5t-11.5 3h-164q-4 0 -7.5 -1t-6.5 -3.5t-5 -5.5t-3.5 -6.5t-1.5 -7.5v-116h-102q-10 0 -17 -7t-7 -17v-127h-291q-14 0 -21 -12.5t0 -24.5l176 -308
q4 -6 9.5 -9t11.5 -3h574q16 0 22 14l136 307q5 12 -2 23zM803 109h-546l-147 261h273q10 0 17 7q3 3 5 7.5t2 9.5v128h126v139h116v-139h116l1 -130q0 -5 1.5 -9.5t5 -8t8 -5t9.5 -1.5l127 1z" />
    <glyph glyph-name="uniE644" unicode="&#xe644;" 
d="M929 556q-1 0 -1 1l-1 1l-4 3l-13 8l-339 207q-31 21 -60 24v0q-15 -1 -30 -7.5t-30 -16.5l-340 -207l-12 -8l-4 -3l-1 -1l-1 -1q-13 -12 -20 -28.5t-7 -35.5v-431q0 -37 24.5 -62.5t61.5 -25.5h718q36 0 61 25.5t25 62.5v431q0 38 -27 64zM908 61q0 -7 -2 -15l-305 248
l307 191v-424zM519 361l-9 3h-2h-2q-3 0 -5 -1t-3 -2l-54 -44l-163 102v63h459v-63l-165 -103v-1zM129 525l356 217q12 9 26 11q7 -1 13.5 -4t12.5 -7l356 -217q2 -2 3 -3.5t2 -3.5l-126 -79v43q0 14 -9 23t-23 9h-459q-13 0 -22.5 -9t-9.5 -23v-43l-126 79q3 4 6 7z
M113 485l305 -189l-303 -246q-2 6 -2 11v424zM152 21q-5 0 -9 1t-8 3l373 303l375 -305q-6 -2 -13 -2h-718z" />
    <glyph glyph-name="uniE647" unicode="&#xe647;" 
d="M854 569h-56v135q0 18 -7 34.5t-18.5 28t-28 18.5t-34.5 7h-399q-24 0 -44 -11.5t-32 -32t-12 -44.5v-135h-55q-18 0 -34.5 -7t-28 -19t-18.5 -28t-7 -34v-144q0 -24 11.5 -44t32 -32t44.5 -12h55v-183q0 -24 12 -44t32 -32t44 -12h399q37 0 62.5 26t25.5 62v183h56
q36 0 62 26t26 62v144q0 18 -7 34t-19 28t-28 19t-34 7zM271 704q0 7 2 13t6 11t9 8.5t11 5.5t12 2h399q17 0 28.5 -11.5t11.5 -28.5v-135h-479v135zM750 66q0 -8 -3 -15.5t-8.5 -13t-12.5 -8.5t-16 -3h-399q-16 0 -28 11.5t-12 28.5v183h479v-183zM894 337q0 -8 -3 -15.5
t-8.5 -12.5t-13 -8.5t-15.5 -3.5h-686q-8 0 -15.5 3.5t-13 8.5t-8.5 12.5t-3 15.5v144q0 8 3 15.5t8.5 13t13 8.5t15.5 3h686q17 0 28.5 -12t11.5 -28v-144zM208 425h638v-32h-638v32zM319 218h383v-32h-383v32zM319 138h383v-32h-383v32z" />
    <glyph glyph-name="uniE648" unicode="&#xe648;" 
d="M701 167l-71 71l-20 -20l81 -82q10 -10 21 0l157 157l-21 21zM143 57q-16 0 -27 12t-11 28v454h710v-68h48v116q0 4 -1 7l-2 6l-118 149q-3 6 -8.5 9t-11.5 3h-118h-160h-245q-14 0 -21 -12l-118 -149q-3 -6 -3 -13v-502q0 -37 25 -62t61 -25h301h64v47h-64h-301z
M476 725h128h104l102 -126h-334v126zM212 725h232v-126h-334zM739 448q-93 0 -159 -66t-66 -159t66 -159.5t159 -66.5t159.5 66.5t66.5 159.5t-66.5 159t-159.5 66zM739 29q-80 0 -136.5 57t-56.5 137t56.5 136.5t136.5 56.5q40 0 75.5 -15t61.5 -41t41.5 -62t15.5 -75
q0 -80 -57 -137t-137 -57z" />
    <glyph glyph-name="uniE649" unicode="&#xe649;" 
d="M120 91v454h710v-164h48v212q0 3 -1 6.5t-2 6.5l-118 149q-2 4 -5.5 6.5t-7 4t-8.5 1.5h-117h-160h-245q-14 0 -21 -12l-118 -149q-1 -3 -2 -6.5t-1 -6.5v-502q0 -37 25 -62.5t61 -25.5h476v48h-476q-16 0 -27 11.5t-11 28.5zM491 719h128h104l102 -126h-334v126z
M227 719h232v-126h-334zM943 224l-209 156q-8 6 -17 1q-4 -2 -6.5 -6t-2.5 -8v-91h-228q-6 0 -12 -2.5t-10 -7t-6.5 -10.5t-2.5 -12v-65q0 -13 9 -22.5t22 -9.5h228v-91q0 -10 9 -15l7 -1q6 0 10 3l209 155q7 5 7 13q0 4 -2 7.5t-5 5.5zM740 87v92h-32h-228v65h248h12v91
l167 -124z" />
    <glyph glyph-name="uniE64A" unicode="&#xe64a;" 
d="M914 593q0 3 -1 6.5t-2 6.5l-118 149q-3 6 -8.5 9t-12.5 3h-117h-160h-246q-13 0 -20 -12l-118 -149q-2 -3 -2.5 -6.5t-0.5 -6.5v-502q0 -18 6.5 -34t18 -28t27.5 -19t34 -7h301h160h173q36 0 61 25.5t25 62.5v502zM759 719l102 -126h-334v126h128h104zM263 719h232v-126
h-334zM828 51h-173h-160h-301q-16 0 -27 11.5t-11 28.5v454h710v-454q0 -17 -11 -28.5t-27 -11.5z" />
    <glyph glyph-name="uniE64B" unicode="&#xe64b;" 
d="M137 91v454h710v-132h48v180q0 3 -0.5 6.5t-2.5 6.5l-118 149q-7 12 -20 12h-523q-4 0 -8 -1.5t-7.5 -4t-5.5 -6.5l-117 -149q-2 -3 -3 -6.5t-1 -6.5v-502q0 -24 11.5 -44t31.5 -32t43 -12h397v48h-397q-16 0 -27 11.5t-11 28.5zM508 719h128h104l102 -126h-334v126z
M244 719h232v-126h-334zM751 368h-112v99q0 10 -9 14.5t-16 -1.5l-210 -156q-6 -4 -6 -13q0 -3 1.5 -6.5t4.5 -5.5l210 -156q4 -3 9 -3l7 2q9 4 9 14v84h119q22 0 37.5 -15.5t15.5 -37.5t-15.5 -37.5t-37.5 -15.5l-9 -1v1h-56q-9 0 -16.5 -4.5t-11.5 -12t-4 -15.5v-65
q0 -5 1.5 -10t4.5 -9t7 -7t9 -4.5t10 -1.5h57h1q75 0 128.5 53.5t53.5 128.5q0 37 -14.5 70.5t-39 57.5t-58 38.5t-70.5 14.5zM751 37h-3h-55v65h55h10q23 0 42.5 11t31 31t11.5 43q0 35 -25 60t-60 25h-119h-32v-84l-167 123l167 124v-99h34h110q14 0 27 -2.5t25 -7
t23.5 -11t21 -14.5t18 -18t15 -21t11 -23t7 -25.5t2.5 -26.5q0 -62 -44 -106t-106 -44z" />
    <glyph glyph-name="uniE64C" unicode="&#xe64c;" 
d="M773 775h-527q-36 0 -61 -25.5t-25 -61.5l1 -605q0 -18 7 -34.5t18.5 -28t27.5 -18.5t34 -7h155v542h459v2v149q0 36 -26 61.5t-63 25.5zM814 585h-60v80h-32v-80h-63v48h-32v-48h-64v48h-32v-48h-64v80h-32v-80h-32h-36h-12v-64h-48v-32h48v-64h-80v-32h80v-64h-48v-32
h48v-63h-48v-32h48v-64h-80v-32h80v-63h-107q-6 0 -11 1.5t-9 4t-7.5 6t-6 8t-4 9.5t-1.5 11l-1 605q0 11 5 20t13.5 14t19.5 5h527q6 0 12.5 -2t11.5 -5.5t9 -8.5t6 -11t2 -12v-103z" />
    <glyph glyph-name="uniE64D" unicode="&#xe64d;" 
d="M366 617q10 0 17 7t7 17v74q0 5 -2 9.5t-5 7.5t-7.5 5t-9.5 2q-10 0 -17 -7t-7 -17v-74q0 -10 7 -17t17 -7zM421 691h192v-48h-192v48zM844 691h-120v-48h120q17 0 28.5 -11.5t11.5 -28.5v-527q0 -13 -1 -20.5t-6.5 -13t-16.5 -5.5h-670q-11 0 -20.5 5t-14.5 14.5
t-5 19.5v527q0 17 11.5 28.5t28.5 11.5h119v48h-119q-37 0 -62.5 -25.5t-25.5 -62.5v-527q0 -36 25.5 -61.5t62.5 -25.5h670q18 0 32 6.5t22.5 18.5t13 28t4.5 34v527q0 24 -12 44.5t-32 32t-44 11.5zM670 617q5 0 9.5 2t7.5 5.5t5 7.5t2 9v74q0 3 -0.5 5.5t-2 5t-3 4.5
t-3.5 3.5t-4.5 3t-5 2t-5.5 0.5t-6.5 -1t-6 -2.5t-4.5 -3.5t-4 -5t-2.5 -6t-0.5 -6v-74q0 -10 7 -17t17 -7zM494 307q-5 -11 -9 -22t-8 -22.5t-7.5 -23t-7.5 -23.5q-12 -46 -19 -94h44q9 59 24 108q7 24 16 47t20 44q21 42 47.5 81t57.5 78v33h-270v-35h221q-36 -41 -63 -84
q-5 -8 -10 -16.5t-10 -17.5t-9.5 -17.5t-8.5 -17.5z" />
    <glyph glyph-name="uniE64E" unicode="&#xe64e;" 
d="M98 165l826 1q10 0 17 7t7 17v2v2q0 114 -55 212t-149.5 157.5t-207.5 66.5v50h56q10 0 17 7t7 17t-7 17t-17 7h-159q-5 0 -9.5 -2t-8 -5t-5 -7.5t-1.5 -9.5q0 -10 7 -17t17 -7h55v-50q-113 -6 -208.5 -65.5t-150.5 -157.5t-55 -213v-2h1l-1 -3q0 -5 2 -9.5t5.5 -8
t7.5 -5t9 -1.5zM512 584q103 0 191 -49t141.5 -134.5t58.5 -186.5l-781 -1q3 76 35.5 145t84.5 118.5t122.5 78.5t147.5 29zM72 90h877v-48h-877v48z" />
    <glyph glyph-name="uniE650" unicode="&#xe650;" 
d="M654 130q0 3 -1 5q-9 54 -37 101t-70 81t-94 52q32 22 50.5 57t18.5 76q0 33 -13 63.5t-35 52.5t-52.5 35t-64 13t-64 -13t-52.5 -35t-35 -52.5t-13 -63.5q0 -41 18.5 -76t50.5 -57q-78 -27 -132 -89t-69 -144l-2 -8q0 -7 3.5 -12.5t9 -8.5t11.5 -3h549q10 0 17 7t7 17v1
zM240 502q0 48 34 82t82.5 34t82.5 -34t34 -82q0 -32 -15.5 -58.5t-42.5 -42.5t-58 -16q-19 0 -37 6t-32.5 17t-25 25t-16.5 32t-6 37zM112 152q15 53 50.5 95t86.5 66t108 24q86 0 153.5 -52t90.5 -133h-489zM962 156q-4 51 -27.5 97t-61 79t-85.5 50q13 10 23.5 22.5
t18 27t11.5 31.5t4 34q0 60 -43 102.5t-103 42.5q-12 0 -23.5 -1.5t-22.5 -5.5t-21 -9t-19 -11.5t-17 -14.5t-14.5 -17t-12 -19.5t-9 -21t-5.5 -22t-2 -23.5q0 -35 15 -64.5t41 -50.5q-13 -5 -28 -12q10 -8 19.5 -17t18.5 -18q39 15 80 15q78 0 138 -50t75 -126h-199
q3 -12 5.5 -24t4.5 -24h216q10 0 17 7t7 17q0 3 -1 6zM699 399q-27 0 -49.5 13t-35.5 35.5t-13 49t13 49t35.5 36t49.5 13.5q20 0 38 -8t31 -21t21 -31t8 -38q0 -41 -29 -69.5t-69 -28.5z" />
    <glyph glyph-name="uniE651" unicode="&#xe651;" 
d="M695 510h-21q3 -40 41 -40q18 0 29.5 10t12.5 30h-20q-3 -25 -22 -25t-20 25zM701 367q-11 -20 -25 -48h-1q2 28 2 62v66h-27v-155h32q9 13 25 41t24 40q13 22 25 48h1q-1 -22 -1.5 -34t-0.5 -30v-65h27v155h-33zM340 498h-30l-66 -195h26l20 62h69l21 -62h27zM295 384
l20 56q2 9 4.5 17.5t4.5 18.5h1v-3q6 -21 10 -33l19 -56h-59zM440 563l12 -17q48 26 95.5 16t78.5 -50l18 11q-37 48 -93 59.5t-111 -19.5zM417 599l-31 -89l94 -7zM400 259l-18 -12q36 -47 92.5 -59t111.5 19l-12 17q-31 -17 -64 -18.5t-61.5 12.5t-48.5 41zM609 172l31 88
l-94 7zM855 752h-687q-36 0 -61 -25.5t-25 -61.5v-559q0 -37 25 -62.5t61 -25.5h687q18 0 34.5 7t28.5 18.5t19 28t7 34.5v559q0 36 -26 61.5t-63 25.5zM896 106q0 -16 -12 -28t-29 -12h-687q-16 0 -27 11.5t-11 28.5v559q0 16 11 27.5t27 11.5h687q8 0 15.5 -3t13.5 -8.5
t9 -13t3 -14.5v-559z" />
    <glyph glyph-name="uniE652" unicode="&#xe652;" 
d="M838 785h-654q-18 0 -32.5 -8.5t-23 -23t-8.5 -32.5v-670q0 -26 18.5 -45t45.5 -19h654q27 0 45.5 19t18.5 45v176v31v256v32v175q0 13 -5 25t-13.5 20.5t-20.5 13.5t-25 5zM854 258h-160q-52 0 -89.5 37.5t-37.5 90.5t37.5 90.5t89.5 37.5h160v-256zM694 546
q-43 0 -79.5 -21.5t-58 -58t-21.5 -80t21.5 -80.5t58 -58t79.5 -21h160v-160q0 -13 -9.5 -22.5t-22.5 -9.5h-622q-7 0 -13 2.5t-10 7t-6.5 10t-2.5 12.5v638q0 14 9 23t23 9h622q13 0 22.5 -9t9.5 -23v-159h-160zM622 394q0 -20 14 -34t34 -14q14 0 25 6.5t17.5 17.5t6.5 24
q0 20 -14 34.5t-35 14.5q-5 0 -10.5 -1.5t-10.5 -4t-9 -5.5t-7.5 -7.5t-6 -9t-3.5 -10t-1 -11.5zM687 394q0 -7 -5 -11.5t-11.5 -4.5t-11.5 4.5t-5 11.5q0 5 2 8.5t6 6t8 2.5t7 -1.5t5 -3.5t3.5 -5t1.5 -7z" />
    <glyph glyph-name="uniE653" unicode="&#xe653;" 
d="M992 464l-40 40l-40 40q-3 3 -6.5 4t-7 1t-7 -1t-6.5 -4l-330 -330q-3 -3 -4 -7l-37 -121q-2 -8 4 -14l1 -1v-1q3 -3 7 -4t8 0l121 37q1 0 2.5 1t2.5 2l2 2l330 329q3 4 4.5 9t0 9.5t-4.5 8.5zM643 129l-95 -29l29 96l255 255l66 -67zM958 444l-46 -47l-67 67l47 47
q6 6 13 0l27 -27l26 -27q7 -6 0 -13zM366 360l66 -65q17 -18 43 -19h1h1h1q25 1 43 19l65 65l38 -38l23 23l-38 38l258 258q8 -11 8 -24v-26h48v26q0 24 -11.5 44t-31 31.5t-43.5 11.5h-359h-3h-360q-23 0 -43 -11.5t-31.5 -31.5t-11.5 -44v-463q0 -37 25 -62.5t61 -25.5
h363v48h-358zM115 657h722l-339 -339q-8 -9 -22 -9q-4 0 -8 1t-7.5 3t-6.5 5zM87 127q-10 11 -10 27v463q0 13 8 24l259 -258z" />
    <glyph glyph-name="uniE655" unicode="&#xe655;" 
d="M398 383h351v-32h-351v32zM270 543h479v-32h-479v32zM839 756h-655q-37 0 -63 -26t-26 -62v-431q0 -36 26 -62t63 -26h95v-152v-1v-1q0 -9 6 -16q7 -7 18 -7q9 0 16 6l188 171h332q36 0 61 25.5t25 62.5v431q0 18 -7 34.5t-18.5 28t-27.5 18.5t-33 7zM877 237
q0 -17 -11 -28.5t-27 -11.5h-351l-161 -147v147h-143q-17 0 -29 12t-12 28v431q0 8 3 15.5t8.5 12.5t13.5 8.5t16 3.5h655q16 0 27 -11.5t11 -28.5v-431z" />
    <glyph glyph-name="uniE656" unicode="&#xe656;" 
d="M415 497h32v-335h-32v335zM575 497h32v-335h-32v335zM686 657v95q0 14 -9 23t-22 9h-288q-13 0 -22.5 -9t-9.5 -23v-95h-207v-48h96v-559q0 -27 18.5 -45.5t44.5 -18.5h447q27 0 45.5 18.5t18.5 45.5v559h96v48h-208zM383 720q0 7 4.5 11.5t11.5 4.5h224q6 0 11 -4.5
t5 -11.5v-63h-256v63zM750 66q0 -13 -9 -22.5t-23 -9.5h-415q-6 0 -12 2.5t-10.5 7t-7 10t-2.5 12.5v543h479v-543z" />
    <glyph glyph-name="uniE657" unicode="&#xe657;" 
d="M842 772h-495q-12 0 -23 -3t-20.5 -8.5t-17.5 -13.5t-13.5 -18t-8.5 -21.5t-3 -23.5v-53h-56q-10 0 -20 -2.5t-19 -7t-17 -10.5t-14 -13.5t-10.5 -16t-6.5 -18.5t-2 -20v-287q0 -37 26 -62.5t63 -25.5h31v-152v-2v0q0 -9 6 -16q7 -8 18 -8q9 0 16 6l188 172h221l86 -78
q7 -6 16 -6q11 0 18 8q6 6 6 15v1v1v152h31q8 0 16 1.5t15 4t14 6.5t12.5 9t10.5 10.5t9 12t7 14t4 15t1 15.5v335q0 37 -26 62.5t-63 25.5zM446 216l-162 -147v147h-79q-17 0 -29.5 11.5t-12.5 28.5v287q0 16 12.5 28t29.5 12h56v-234q0 -37 25 -62.5t61 -25.5h236l50 -45
h-187zM884 349q0 -3 -1 -7l-2 -6q-1 -4 -3 -7t-4 -5l-6 -6q-2 -2 -5 -3.5t-6.5 -3t-7 -2t-7.5 -0.5h-79v-147l-162 147h-254q-10 0 -19 5.5t-14 14.5t-5 20v335q0 17 11 28.5t27 11.5h495q11 0 20.5 -5.5t15 -14.5t5.5 -20v-335h1z" />
    <glyph glyph-name="uniE658" unicode="&#xe658;" 
d="M331 48l559 559q5 5 7 11t2 12t-2 12t-7 10l-68 68l-68 68q-9 9 -22 9t-23 -9l-559 -559q-1 -2 -2.5 -3.5t-3 -3.5t-1.5 -5l-62 -206q-4 -13 6 -23l1 -2l2 -1q4 -5 10.5 -6.5t13.5 0.5l205 61q3 1 5 2t4 2.5t3 3.5zM743 731l46 -45l44 -45q12 -11 0 -23l-79 -79l-112 113
l79 79q11 12 22 0zM138 36l49 161l432 433l113 -113l-432 -433z" />
    <glyph glyph-name="uniE659" unicode="&#xe659;" 
d="M511 832q-91 0 -174 -35.5t-142.5 -95t-95 -142.5t-35.5 -174t35.5 -173.5t95 -142.5t142.5 -95.5t174 -35.5t173.5 35.5t142.5 95.5t95.5 142.5t35.5 173.5t-35.5 174t-95.5 142.5t-142.5 95t-173.5 35.5zM512 -16q-109 0 -201 53.5t-145.5 146t-53.5 200.5
q0 82 31.5 156t85 127.5t128 85.5t155.5 32q109 0 201 -53.5t145.5 -146t53.5 -201.5q0 -156 -105 -271q-104 -112 -255 -127q-20 -2 -40 -2zM511 513q-53 0 -90.5 -37.5t-37.5 -90.5q0 -26 10 -49.5t27.5 -40.5t41 -27.5t49.5 -10.5q35 0 64 17.5t46.5 46.5t17.5 64
t-17.5 64.5t-46.5 46.5t-64 17zM511 289q-20 0 -37.5 8t-30.5 20.5t-20.5 30.5t-7.5 37q0 40 28 68t68 28t68 -28t28 -68t-28 -68t-68 -28zM511 615q-113 0 -203.5 -64t-129.5 -166q19 -50 52.5 -92.5t76 -73t95.5 -47.5t109 -17q112 0 203 64t129 166q-7 20 -17 39
t-22 36.5t-26 33.5t-30 30t-33.5 26.5t-36 22.5t-38.5 18t-41 13.5t-43.5 8t-44.5 2.5zM511 187q-99 0 -180 55t-118 143q18 44 48.5 80.5t68.5 62.5t84.5 40.5t96.5 14.5q99 0 180 -54.5t118 -143.5q-18 -43 -48.5 -79.5t-68.5 -63t-85 -41t-96 -14.5z" />
    <glyph glyph-name="uniE65A" unicode="&#xe65a;" 
d="M771 -41q-6 0 -11 2l-249 131l-249 -131q-4 -2 -8.5 -2.5t-9 1t-7.5 3.5q-12 9 -10 24l48 277l-202 196q-10 11 -5.5 25t19.5 16l278 40l124 253q3 6 9 9.5t13 3.5q15 0 21 -13l125 -253l278 -40q15 -2 19 -16q2 -7 0.5 -13.5t-6.5 -11.5l-201 -196l47 -277
q2 -7 -1 -13.5t-8 -10.5q-6 -4 -14 -4zM511 143q3 0 5.5 -0.5t5.5 -1.5l217 -115l-41 242q-1 6 0.5 11.5t6.5 9.5l175 172l-243 35q-5 1 -10 4.5t-8 8.5l-108 220l-109 -220q-5 -11 -18 -13l-242 -35l175 -172q9 -8 7 -21l-41 -242l217 115q2 1 5 1.5t6 0.5z" />
    <glyph glyph-name="uniE65B" unicode="&#xe65b;" 
d="M901 462l-328 306q-4 3 -7 5.5t-6.5 5.5t-7.5 5l-6 4q-4 2 -7.5 3.5t-7.5 2.5l-8 2q-4 1 -8 1.5t-8 0.5q-10 0 -19 -2.5t-17 -6t-15.5 -9t-13.5 -11.5l-316 -307q-26 -26 -12 -61q7 -15 21 -24.5t31 -9.5h43v-311q0 -24 12 -44t32 -32t44 -12h152v254h127v-254h152
q37 0 62.5 26t25.5 62v311h45q6 0 12.5 1.5t12.5 4.5t11 7t8.5 9.5t6.5 11.5q4 11 4.5 21.5t-4 21t-11.5 18.5zM868 420q-1 -3 -5.5 -4t-17.5 -1h-77v-359q0 -17 -11.5 -28.5t-28.5 -11.5h-104v214q0 17 -10.5 28.5t-25.5 11.5h-151q-10 0 -18 -5.5t-13 -14.5t-5 -20v-214
h-104q-11 0 -20 5.5t-14.5 14.5t-5.5 20v359h-91q-6 0 -8 5t2 9l317 307q6 6 13.5 9.5t16.5 3.5q18 0 30 -14l329 -306q2 -2 2.5 -4.5t-0.5 -4.5z" />
    <glyph glyph-name="uniE65C" unicode="&#xe65c;" 
d="M826 717q-19 13 -40.5 22.5t-43.5 13.5t-45 4q-52 0 -100.5 -21.5t-85.5 -60.5q-37 39 -86 60.5t-100 21.5q-35 0 -67.5 -10t-62.5 -30q-82 -58 -99.5 -157t40.5 -182q3 -4 8.5 -11t19 -23t22.5 -26q12 -12 134.5 -130t174.5 -168q8 -7 16 -7q4 0 8 2t5 3l2 2
q53 50 175.5 168t133.5 130q9 10 22 25t21 25l8 10q58 83 40.5 182t-100.5 157zM847 407q-29 -37 -47 -57q-14 -15 -281 -271q-3 -3 -9 -3h-2q-1 0 -3 1q-269 257 -283 273q-8 9 -19.5 22.5t-17.5 21t-11 13.5q-45 66 -31 145t80 125q22 16 48 24t54 8q88 0 151 -67l35 -36
l35 36q63 67 151 67q56 0 102 -32q32 -22 52.5 -54.5t27.5 -70.5q7 -39 -1.5 -76t-30.5 -69z" />
    <glyph glyph-name="uniE65D" unicode="&#xe65d;" 
d="M185 410h251q17 0 28.5 12t11.5 28v252q0 16 -11.5 28t-28.5 12h-251q-5 0 -9.5 -1t-8.5 -3t-7 -5t-6 -6.5t-5 -7.5t-3 -8.5t-1 -8.5v-252q0 -27 26 -37q7 -2 14 -3zM193 694h235v-236h-235v236zM581 410h252q16 0 28 12t12 28v252q0 11 -5.5 20t-14.5 14.5t-20 5.5h-252
q-8 0 -15.5 -3.5t-12.5 -8.5t-8.5 -12.5t-3.5 -15.5v-252q0 -16 12 -28t28 -12zM589 694h236v-236h-236v236zM440 360h-251q-7 0 -13 -2t-11 -6t-8.5 -8.5t-5.5 -11t-2 -12.5v-251q0 -11 5.5 -20.5t14.5 -14.5t20 -5h251q17 0 28.5 11.5t11.5 28.5v251q0 8 -3 15.5t-8.5 13
t-13 8.5t-15.5 3zM432 77h-235v235h235v-235zM837 360h-252q-6 0 -12 -2t-11 -6t-9 -8.5t-6 -11t-2 -12.5v-251q0 -17 12 -28.5t28 -11.5h252q16 0 28 11.5t12 28.5v251q0 8 -3.5 15.5t-8.5 13t-12.5 8.5t-15.5 3zM829 77h-236v235h236v-235z" />
    <glyph glyph-name="uniE65E" unicode="&#xe65e;" 
d="M793 513h-72v56q0 82 -61 140.5t-147 58.5t-146.5 -58.5t-60.5 -140.5v-56h-88q-26 0 -41 -18.5t-15 -45.5v-383q0 -27 15 -45.5t41 -18.5h575q27 0 49 19t22 45v383q0 26 -22 45t-49 19zM354 513v16v40q0 62 46.5 106.5t112.5 44.5t113 -44.5t47 -106.5v-40v-16v-16
h-319v16zM816 82q0 -13 -12.5 -22.5t-26.5 -9.5h-543q-24 0 -24 32v351q0 32 24 32h120h319h104q14 0 26.5 -9.5t12.5 -22.5v-351zM504 357q-33 0 -56.5 -23.5t-23.5 -56.5q0 -28 18.5 -50t45.5 -28v-72h32v72q28 6 46 28t18 50q0 33 -23.5 56.5t-56.5 23.5zM504 230
q-10 0 -18.5 3.5t-15 10t-10.5 15.5t-4 18q0 20 14 34t34 14q13 0 24 -6.5t17.5 -17.5t6.5 -24t-6.5 -24t-17.5 -17t-24 -6z" />
    <glyph glyph-name="uniE65F" unicode="&#xe65f;" 
d="M948 36q-19 126 -103 221t-205 129q32 20 56 48.5t37.5 65t13.5 76.5q0 92 -65.5 157.5t-158.5 65.5q-60 0 -111.5 -29.5t-81.5 -81t-30 -112.5q0 -60 29 -110.5t78 -80.5q-121 -35 -205.5 -131.5t-100.5 -223.5v-2q0 -10 6.5 -17t15.5 -7h804q4 0 8.5 2t7.5 5t4.5 7.5
t1.5 9.5q0 4 -1 8zM348 576q0 73 51.5 124.5t124 51.5t124 -51.5t51.5 -124.5q0 -68 -45.5 -118t-111.5 -57q-10 1 -17 1q-9 0 -19 -1q-17 2 -32.5 6.5t-29.5 12t-27 17t-23.5 21t-19 25.5t-14.5 28.5t-9 31t-3 33.5zM508 353q11 -1 15 -1q6 0 17 1q131 -5 230.5 -90
t125.5 -211h-743q26 126 125 210.5t230 90.5z" />
    <glyph glyph-name="uniE660" unicode="&#xe660;" 
d="M802 429q0 45 -12 88t-33.5 79.5t-52 67t-67 52t-79 33.5t-87.5 12q-138 0 -235 -97t-97 -234.5t97 -234.5q32 -31 69.5 -52.5t79.5 -33t86 -11.5q126 0 220 85l24 -24l-1 -2q-5 -4 -5 -11t5 -11l120 -121q12 -11 23 0l25 26q12 11 0 22l-120 121q-11 11 -23 0l-1 -2
l-24 24q88 96 88 224zM270 229q-83 83 -83 200.5t83 200.5t200.5 83t200.5 -83t83 -200.5t-83 -200.5t-200.5 -83t-200.5 83z" />
    <glyph glyph-name="uniE661" unicode="&#xe661;" 
d="M524 595q-85 0 -145 -60.5t-60 -145.5q0 -56 27.5 -103t74.5 -75t103 -28q85 0 145.5 60.5t60.5 145.5t-60.5 145.5t-145.5 60.5zM525 212q-29 0 -55.5 8.5t-48.5 25t-38.5 38.5t-25 49t-8.5 55q0 74 51.5 125.5t124.5 51.5t125 -51.5t52 -125.5q0 -48 -23.5 -88.5
t-64.5 -64t-89 -23.5zM485 338l-57 57l-23 -22l58 -57l-1 -1l23 -22l146 147l-22 22zM884 674h-12h-12q-88 0 -172 32t-150 92q-3 3 -6.5 4.5t-7.5 1.5v0h-1q-4 0 -7.5 -1.5t-6.5 -4.5q-27 -24 -57 -44.5t-62 -35t-66 -24.5t-68.5 -15t-68.5 -5h-24q-7 1 -12.5 -2t-9 -8.5
t-3.5 -12.5v-1q0 -53 1 -91.5t5 -91t11.5 -91.5t21 -87t32.5 -84.5t48 -75.5t65.5 -68.5t85.5 -56.5t109 -45l6 -1v0h1v0q2 0 3.5 0.5t2.5 0.5q60 18 109 45t85.5 56.5t65 68.5t48 75.5t33 84.5t21 87t11.5 91.5t5 91t1 91.5v1q0 11 -7.5 17.5t-17.5 5.5zM524 8
q-66 20 -117.5 52.5t-86.5 69t-60 85t-39 93.5t-22 103.5t-10.5 105.5t-2.5 109h1q36 0 71.5 4.5t71 14.5t69 24.5t65.5 34t59 43.5q47 -40 103 -67.5t115 -40.5t119 -13h1q0 -89 -5 -153t-24.5 -143.5t-54.5 -135t-99.5 -106.5t-153.5 -80z" />
    <glyph glyph-name="uniE662" unicode="&#xe662;" 
d="M575 -33h-119q-24 0 -44.5 21t-20.5 43v43q0 2 -4.5 4t-12.5 5t-12 5l-26 -30q-16 -16 -38.5 -16t-37.5 16l-84 84q-6 5 -9.5 11t-5 12.5t-1.5 14.5q0 10 4 20t12 17l32 32q-4 10 -9 21h-42q-22 0 -45.5 19t-23.5 41v120q0 22 23.5 40.5t45.5 18.5h43q8 20 13 32l-37 35
q-16 16 -16 38q0 23 15 39l85 84q15 16 37.5 16t37.5 -16l36 -39q2 1 8 3t9 3.5t3 3.5v56q0 8 3.5 15.5t9.5 13.5t14 10.5t18 7t20 2.5h119q15 0 27.5 -5.5t20 -17t7.5 -26.5v-55q8 -2 26 -10l36 38q16 16 39.5 16t38.5 -15l85 -85q7 -7 11.5 -17t4.5 -20q0 -8 -2 -14.5
t-5.5 -12.5t-8.5 -11l-36 -35l15 -34h40q21 0 32.5 -16.5t11.5 -42.5v-120q0 -25 -11 -42.5t-33 -17.5h-40q-1 -4 -2.5 -8t-3.5 -7.5t-3 -7.5l30 -27q16 -17 16 -39t-16 -38l-84 -85q-15 -15 -37.5 -15t-37.5 15l-30 29q-24 -11 -36 -14v-42q0 -22 -16.5 -43t-38.5 -21z
M371 138q14 -8 46 -21q7 -3 12 -5l3 -2q7 -3 7 -15v-64q0 -1 1 -3t4 -4l3 -4q5 -6 14 -6l108 1q4 0 9 5q4 4 4 11v63q0 10 13 15l6 2q2 1 7 3t6 2q34 14 47 21l6 3q11 6 19 -3l36 -37q5 -5 11 -5h3q2 0 3.5 1t3 1.5t2.5 2.5l69 69q5 5 5 11.5t-5 11.5l-39 36q-4 4 -5 9t1 10
l3 6q11 21 21 49l2 5q1 3 3.5 5.5t5.5 4t6 1.5h47q11 0 11 16v112q0 16 -11 16h-46q-11 0 -15 9l-2 5q-2 4 -6 14l-4 12q-2 4 -5 11t-6 12.5t-6 10.5l-3 6q-6 10 3 19l44 43q5 5 5 11.5t-4 11.5l-70 69q-5 5 -12 5q-3 0 -6 -1.5t-5 -3.5l-44 -47q-2 -3 -5.5 -4t-7 -1t-6.5 2
l-5 3q-11 5 -23 10t-26 10l-8 2q-6 2 -10 6.5t-4 8.5v63q0 16 -10 16h-112q-4 0 -9 -2t-8.5 -6t-3.5 -8v-63q0 -4 -1 -7t-2.5 -5t-4.5 -3l-4 -2q-25 -9 -48 -21l-5 -3q-10 -6 -19 3l-46 48q-2 2 -5 3.5t-7 1.5q-6 0 -11 -5l-69 -70q-5 -5 -5 -11q0 -4 1.5 -7t3.5 -5l46 -44
q10 -8 3 -19l-3 -5q-7 -15 -20 -46q-3 -9 -5 -13l-2 -5q-4 -9 -15 -9h-64l-11 -6q-5 -5 -5 -13v-107q0 -3 1.5 -6.5t3.5 -5.5l4 -2l2 -2l3 -1.5t2 -0.5h65q5 0 9 -3t6 -8l2 -5q1 -5 3 -9.5t4 -9.5t4 -9.5t4 -9.5l5 -9l3 -6q5 -10 -3 -18l-41 -40q-5 -5 -5 -11.5t4 -11.5
l70 -69q5 -5 11 -5q3 0 5 0.5t3.5 2t3.5 2.5l36 39q9 9 20 3zM508 557q-66 0 -113 -46.5t-47 -112.5t47 -113t113 -47t113 47t47 113t-47 112.5t-113 46.5zM508 270q-35 0 -64.5 17t-46.5 46.5t-17 64.5q0 53 37.5 90t90.5 37t90.5 -37t37.5 -90q0 -35 -17.5 -64.5
t-46.5 -46.5t-64 -17z" />
    <glyph glyph-name="uniE664" unicode="&#xe664;" 
d="M517 842q-61 0 -119 -16t-107 -45t-90 -70.5t-70 -90.5t-45 -107t-16 -118q0 -91 35.5 -174t95.5 -142.5t142.5 -95t173.5 -35.5t174 35.5t142.5 95t95 142.5t35.5 174q0 52 -11.5 102t-33.5 94t-53 83t-69.5 69.5t-82.5 52.5t-94.5 34t-102.5 12zM518 -6
q-108 0 -200.5 53.5t-146 145.5t-53.5 201t53.5 201t146 145.5t201 53.5t201 -53.5t146 -145.5t53.5 -201q0 -156 -106 -271q-103 -112 -255 -127q-20 -2 -40 -2zM533 698h-32v-318v-32h32h239v32h-239v318z" />
    <glyph glyph-name="uniE665" unicode="&#xe665;" 
d="M808 290v-176q0 -13 -9.5 -22.5t-22.5 -9.5h-543q-7 0 -12.5 2.5t-10 7t-7 10.5t-2.5 12v543q0 6 2.5 12t7 10.5t10 7t12.5 2.5h255v48h-271q-10 0 -20 -3.5t-18 -9.5t-13.5 -13.5t-9 -17.5t-3.5 -20v-575q0 -26 19 -45t45 -19h575q26 0 45 19t19 45v192h-48zM899 519
l-310 202q-8 6 -16.5 1.5t-8.5 -14.5v-115q-78 -18 -147 -69t-112.5 -124.5t-43.5 -149.5q0 -2 1 -17q0 -12 12 -15q6 -1 11 1.5t7 7.5q26 54 67 95.5t94 65.5t111 26v-111q0 -10 9 -14q3 -2 7 -2q5 0 9 3l310 202q7 5 7 13q-1 9 -7 14zM596 332v114h-32
q-79 -3 -148.5 -42.5t-118.5 -106.5q17 98 106.5 176t192.5 93v1v32v80l265 -174z" />
    <glyph glyph-name="uniE666" unicode="&#xe666;" 
d="M851 653h-686q-24 0 -44 -11.5t-31 -32t-11 -44.5v-447q0 -37 25 -62.5t61 -25.5h686q37 0 63.5 26t26.5 62v447q0 36 -26.5 62t-63.5 26zM893 118q0 -16 -12.5 -28t-29.5 -12h-686q-16 0 -27 11.5t-11 28.5v273h766v-273zM893 503h-766v62q0 17 11 28.5t27 11.5h686
q17 0 29.5 -12t12.5 -28v-62zM211 256h273v-32h-273v32z" />
    <glyph glyph-name="uniE669" unicode="&#xe669;" 
d="M511 -16q-41 0 -61 37h-52q7 -24 23.5 -43.5t40 -30.5t49.5 -11q39 0 70.5 24t41.5 61h-51q-20 -37 -61 -37zM510 810v0v0q-82 -1 -152.5 -42t-111 -111.5t-40.5 -153.5q0 -85 43.5 -157t117.5 -112v-135q0 -16 12 -28t28 -12h208q10 0 19.5 5.5t15 14.5t5.5 20v135
q74 40 117.5 112t43.5 157q0 127 -89.5 216.5t-216.5 90.5zM607 264v0v-157h-192v157v0q-49 20 -85.5 56t-56 83.5t-19.5 99.5q0 107 75 182.5t181 76.5q107 -1 182.5 -76.5t75.5 -182.5q0 -112 -81 -188q-36 -33 -80 -51z" />
    <glyph glyph-name="uniE66A" unicode="&#xe66a;" 
d="M971 500q0 24 -23 47q-9 9 -9 16.5t9 17.5q23 22 23 47q0 21 -15 39h-2v1h-571h-7h-96q-4 0 -8 -1l-6 -2q-4 -1 -7 -2.5t-5.5 -4t-4.5 -5t-4 -5.5t-3 -6t-1.5 -7t-0.5 -7v-112h48v104h88v-104h48v104h497q-2 -3 -8 -9q-22 -23 -22 -47.5t22 -46.5q6 -6 8 -9t2 -8t-2 -8
t-8 -9q-22 -23 -22 -47v0q0 -25 22 -47l5 -5l2 -4q2 -2 2.5 -4t0.5 -4q0 -8 -10 -18q-22 -22 -22 -46.5t22 -46.5q6 -6 7 -8h-132v-48h108h60q15 17 15 39q0 24 -23 47q-9 9 -9 16.5t9 17.5q23 22 23 47q0 11 -4.5 21t-8 14.5t-10.5 10.5q-9 10 -9 18v0q0 8 9 17q4 3 5.5 5
t4.5 5.5t5 7t4 8t3 10t1 11.5zM810 370q0 11 -4.5 21t-8 14.5t-10.5 10.5q-9 10 -9 17.5t9 17.5q23 22 23 46q0 7 -1.5 13t-3.5 10.5t-4.5 8.5t-5.5 7h-2v1h-587h-7h-96q-17 0 -28.5 -11.5t-11.5 -28.5v-383q0 -16 11.5 -28t28.5 -12h103h529h60q6 8 10.5 17.5t4.5 21.5
q0 9 -2 16.5t-6 13.5t-7 9l-8 8q-9 10 -9 17.5t9 17.5q23 22 23 46.5t-23 46.5q-9 10 -9 17v1q0 7 9 17q23 22 23 47zM199 122h-88v368h88v-368zM730 305q0 -24 22 -47q10 -9 10 -17q-1 -8 -10 -17q-22 -22 -22 -46.5t22 -46.5q2 -2 3 -3.5t2.5 -3t1.5 -2.5h-512v368h513
q-2 -4 -8 -10q-22 -22 -22 -47q0 -8 2 -15.5t6 -13.5t6.5 -9.5t7.5 -7.5q3 -3 4 -5l4 -4q1 -2 1.5 -4t0.5 -4q0 -8 -10 -18q-22 -22 -22 -46v-1zM549.5 293.5q-5.5 6.5 -12.5 11t-15 8.5t-17 7q-2 0 -4 1t-3 1v82l8 -4q4 -2 7 -5q7 -5 11.5 -13.5t5.5 -19.5h24v4q0 3 -0.5 5
t-1 4.5t-1.5 4.5t-1 5q-4 11 -13 21t-23 16q-7 3 -16 5v32h-32v-32q-5 0 -9.5 -1t-8.5 -2q-13 -3 -23 -10.5t-15.5 -18t-5.5 -24.5q0 -5 1 -10t2.5 -9.5t3.5 -8t4.5 -7t6 -6.5t6.5 -5t6 -3l4 -4l6 -2q4 -2 8.5 -3.5t8.5 -3.5q1 0 3 -1h2v-91q-6 1 -8 2q-5 2 -9.5 4.5
t-8.5 6.5q-8 7 -12 17q-5 11 -6 22h-24q0 -17 7.5 -31t19 -24t25.5 -15q3 -1 5.5 -2t5 -1.5t5.5 -0.5v-32h32v32q8 1 15 3q5 1 9.5 3t8.5 4t7 5q11 8 17 20.5t6 28.5q0 6 -1 10.5t-2 8.5q-3 9 -8.5 15.5zM466 332l-1 1q-11 4 -19 9q-3 1 -5 3t-4 4.5t-4 4.5q-5 7 -5 17
t4.5 17t11.5 11t16 6q1 0 6 1v-74zM532.5 238.5q-4.5 -8.5 -12.5 -13.5q-4 -3 -8.5 -5t-9.5 -3h-3l-1 -1v81h1h1q11 -4 19 -9t13 -12t5 -17q0 -12 -4.5 -20.5z" />
    <glyph glyph-name="uniE66B" unicode="&#xe66b;" 
d="M854 569h-56v135q0 18 -7 34.5t-18.5 28t-28 18.5t-34.5 7h-399q-24 0 -44 -11.5t-32 -32t-12 -44.5v-135h-55q-18 0 -34.5 -7t-28 -19t-18.5 -28t-7 -34v-144q0 -24 11.5 -44t32 -32t44.5 -12h55v-183q0 -24 12 -44t32 -32t44 -12h399q37 0 62.5 26t25.5 62v183h56
q36 0 62 26t26 62v144q0 18 -7 34t-19 28t-28 19t-34 7zM271 704q0 7 2 13t6 11t9 8.5t11 5.5t12 2h399q17 0 28.5 -11.5t11.5 -28.5v-135h-479v135zM750 66q0 -8 -3 -15.5t-8.5 -13t-12.5 -8.5t-16 -3h-399q-16 0 -28 11.5t-12 28.5v183h479v-183zM894 337q0 -8 -3 -15.5
t-8.5 -12.5t-13 -8.5t-15.5 -3.5h-686q-8 0 -15.5 3.5t-13 8.5t-8.5 12.5t-3 15.5v144q0 8 3 15.5t8.5 13t13 8.5t15.5 3h686q17 0 28.5 -12t11.5 -28v-144zM208 425h638v-32h-638v32zM319 154h383v-32h-383v32z" />
    <glyph glyph-name="uniE66C" unicode="&#xe66c;" 
d="M513 535q-42 0 -80.5 -16.5t-66.5 -44.5t-44 -66.5t-16 -80.5q0 -86 60.5 -146.5t146.5 -60.5t147 60.5t61 146.5t-61 147t-147 61zM513 154q-71 0 -122 51t-51 122.5t51 122t122 50.5q35 0 67 -13.5t55.5 -37t37 -55.5t13.5 -67q0 -47 -23 -87t-63 -63t-87 -23zM839 630
h-130l-41 78q-7 16 -20.5 25t-30.5 9h-210q-16 0 -30 -9t-21 -24l-42 -79h-130q-8 0 -15.5 -1t-14.5 -4t-13.5 -6.5t-12 -8.5t-10.5 -10.5t-8.5 -12t-6 -14t-4 -15t-1.5 -15.5v-431q0 -37 25 -62.5t61 -25.5h655q37 0 63 25.5t26 62.5v431q0 17 -7 33.5t-19 28.5t-28.5 18.5
t-34.5 6.5zM880 112q0 -11 -5.5 -20t-15 -14.5t-20.5 -5.5h-655q-16 0 -27 11.5t-11 28.5v431q0 16 11 28t27 12h158l57 104l1 2q1 2 2 3t2.5 1.5t2.5 0.5h210q5 0 7 -5l57 -106h158q8 0 15.5 -3.5t13.5 -9t9 -12.5t3 -15v-431zM513 423q-40 0 -68 -28t-28 -68t28 -68
t68 -28t68 28t28 68t-28 68t-68 28zM513.5 263q-26.5 0 -45.5 19t-19 45.5t19 45t45.5 18.5t45 -18.5t18.5 -45t-18.5 -45.5t-45 -19z" />
    <glyph glyph-name="uniE66D" unicode="&#xe66d;" 
d="M714 361h-1v1q-6 6 -15 4h-1l-2 -1h-1q-3 -2 -4 -3l-1 -1l-134 -134l23 -22l107 107v-320h32v320l107 -106l23 22zM323 471h319v-32h-319v32zM323 327h224v-32h-224v32zM323 199h144v-32h-144v32zM227 72v590h57v-11q0 -8 3 -15.5t8.5 -13t13 -8.5t15.5 -3h318
q16 0 28 11.5t12 28.5v11h56v-223h48v271h-104v29q0 16 -12 27.5t-28 11.5h-318q-11 0 -20 -5t-14.5 -14.5t-5.5 -19.5v-29h-104v-654q0 -18 8.5 -32.5t23 -23t31.5 -8.5h320v48h-304q-6 0 -12 2.5t-10.5 6.5t-7 10t-2.5 13zM332 731h302v-72h-302v72z" />
    <glyph glyph-name="uniE66E" unicode="&#xe66e;" 
d="M642 180l-56 56l-20 -21l65 -66q11 -10 21 0l125 125l-21 21zM671.5 412q-79.5 0 -135.5 -56.5t-56 -135.5t56 -135t135.5 -56t135.5 56t56 135t-56 135.5t-135.5 56.5zM671 58q-67 0 -114.5 47.5t-47.5 114.5q0 44 22 81.5t59 59t81 21.5t81.5 -21.5t59 -59t21.5 -81.5
q0 -67 -47.5 -114.5t-114.5 -47.5zM302 510h320v-31h-320v31zM302 367h160v-32h-160v32zM302 239h128v-32h-128v32zM207 79v575h56v-11q0 -16 12 -28t28 -12h318q17 0 28.5 12t11.5 28v11h57v-207h47v255h-104v29q0 8 -3 15.5t-8.5 12.5t-13 8.5t-15.5 3.5h-318
q-6 0 -12.5 -2t-11 -6t-8.5 -9t-6 -11t-2 -12v-29h-104v-639q0 -26 18.5 -44.5t45.5 -18.5h271v47h-255q-14 0 -23 9.5t-9 22.5zM311 723h302v-72h-302v72z" />
    <glyph glyph-name="uniE670" unicode="&#xe670;" 
d="M858 45l-67 67q-11 11 -22 0l-2 2q46 49 46 115q0 45 -22.5 83.5t-61 61t-84.5 22.5q-69 0 -118 -49t-49 -118t49 -118t118 -49q63 0 110 41l3 -2q-12 -11 0 -22l66 -67q11 -11 23 0l11 11q11 11 0 22zM645 94q-56 0 -95.5 39.5t-39.5 95.5q0 37 18 68t49.5 49t68 18
t68 -18t49.5 -49t18 -68q0 -56 -40 -95.5t-96 -39.5zM610 445zM303 510h319v-31h-319v31zM303 367h160v-32h-160v32zM303 239h128v-32h-128v32zM207 79v575h57v-11q0 -16 11.5 -28t28.5 -12h318q6 0 12 2t11 6t9 8.5t6 11t2 12.5v11h56v-207h48v255h-104v29q0 8 -3.5 15.5
t-8.5 12.5t-12.5 8.5t-15.5 3.5h-318q-7 0 -13 -2t-11 -6t-8.5 -9t-5.5 -11t-2 -12v-29h-105v-639q0 -26 19 -44.5t45 -18.5h272v47h-256q-3 0 -7 1t-7 2.5t-5 3.5l-6 6q-2 2 -3.5 5.5t-2.5 7t-1 6.5zM312 723h302v-72h-302v72z" />
    <glyph glyph-name="uniE671" unicode="&#xe671;" 
d="M354 486h319v-32h-319v32zM354 350h319v-32h-319v32zM354 215h319v-32h-319v32zM712 709v30q0 17 -11.5 28.5t-28.5 11.5h-318q-16 0 -28 -11.5t-12 -28.5v-30h-104v-654q0 -13 5 -25t13.5 -20.5t20.5 -13.5t25 -5h479q26 0 44.5 18.5t18.5 45.5v654h-104zM362 731h302
v-71h-302v71zM769 71q0 -13 -9.5 -22.5t-22.5 -9.5h-447q-9 0 -16.5 4.5t-11.5 11.5t-4 16v591h56v-10q0 -9 3.5 -16t8.5 -12.5t12.5 -8.5t15.5 -3h318q17 0 28.5 11.5t11.5 28.5v10h57v-591z" />
    <glyph glyph-name="uniE672" unicode="&#xe672;" 
d="M313 448h320v-32h-320v32zM313 312h224v-32h-224v32zM313 177h128v-32h-128v32zM889 341l-40 40l-40 40q-5 6 -13 6t-13 -6l-330 -330l-3 -3q-1 -1 -1 -3l-37 -122q-2 -8 4 -14l1 -1v-1q6 -6 14 -3l122 36q4 2 7 5l329 330q6 5 6 13t-6 13zM541 6l-95 -28l29 95l255 255
l66 -67zM856 321l-46 -46l-67 66l47 47q2 3 6 3t7 -3l27 -27l26 -26q7 -7 0 -14zM672 671v29q0 17 -12 28.5t-28 11.5h-318q-11 0 -20 -5.5t-14.5 -14.5t-5.5 -20v-29h-104v-643q0 -18 8.5 -32.5t23 -23t32.5 -8.5h127v48h-111q-14 0 -23 9t-9 23v579h56v-11q0 -8 3 -15.5
t8.5 -12.5t13 -8.5t15.5 -3.5h318q16 0 28 12t12 28v11h56v-164h48v212h-104zM624 620h-302v72h302v-72z" />
  </font>
</defs>
</svg>
